<svg width="882" height="882" viewBox="0 0 882 882" fill="none" xmlns="http://www.w3.org/2000/svg">
<circle cx="437" cy="393" r="384" fill="#FCFDFD" stroke="#23292E" stroke-width="10"/>
<path d="M729.16 290.993L464.16 205.312C446.35 199.562 427.66 199.562 409.85 205.312L144.85 290.993C127.94 296.463 117 311.383 117 329.003C117 346.623 127.94 361.542 144.84 367.012L174.55 376.613C171.25 382.793 168.81 389.443 167.22 396.413C156.53 401.593 149 412.323 149 425.003C149 437.733 156.57 448.523 167.33 453.673L149.28 565.533C147.67 575.523 153.19 585.003 160.62 585.003H201.37C208.8 585.003 214.33 575.523 212.71 565.533L194.67 453.673C205.43 448.523 213 437.733 213 425.003C213 414.403 207.51 405.463 199.57 399.633C201.06 394.973 203.37 390.773 206.14 386.823L259.61 404.112L245 521.003C245 556.353 330.96 585.003 437 585.003C543.04 585.003 629 556.353 629 521.003L614.39 404.112L729.16 367.003C746.06 361.543 757 346.623 757 329.003C757 311.383 746.06 296.463 729.16 290.993ZM596.48 518.862C585.72 530.192 531.04 553.003 437 553.003C342.96 553.003 288.28 530.192 277.52 518.862L290.61 414.133L409.85 452.682C412.45 453.522 435.57 461.912 464.16 452.682L583.4 414.133L596.48 518.862ZM719.28 336.583L454.28 422.263C442.97 425.923 431.03 425.923 419.72 422.263L244.05 365.463L439.94 328.723C448.63 327.103 454.35 318.743 452.72 310.053C451.1 301.353 442.56 295.663 434.06 297.283L230.28 335.482C217.88 337.802 206.77 343.133 197.2 350.312L154.71 336.573C146.86 334.023 147.25 323.833 154.71 321.423L419.71 235.743C434.81 230.863 447.55 233.573 454.27 235.743L719.27 321.423C726.66 323.813 727.18 334.023 719.28 336.583V336.583Z" fill="#23292E"/>
<circle cx="651" cy="695" r="177.756" fill="#FCFDFD" stroke="#FCFDFD" stroke-width="10.4871"/>
<circle cx="650.5" cy="694.5" r="169.5" fill="#FCFDFD" stroke="#23292E" stroke-width="10"/>
<g clip-path="url(#clip0_1_28)">
<path d="M645.398 733.674H657.602V700.39H688.297V688.556H657.602V655.273H645.398V688.556H615.073V700.39H645.398V733.674Z" fill="#23292E"/>
<path d="M588.816 781.75H599.171V752.165H626.537V742.92H599.171V712.964H588.816V742.92H561.449V752.165H588.816V781.75Z" fill="#23292E"/>
<path d="M703.829 674.873H714.184V645.288H741.92V636.412H714.184V606.457H703.829V636.412H676.463V645.288H703.829V674.873Z" fill="#23292E"/>
<path d="M647.247 805.049H656.123V783.969H674.984V776.203H656.123V755.124H647.247V776.203H628.756V783.969H647.247V805.049Z" fill="#23292E"/>
<path d="M589.186 674.873H598.801V644.918H626.537V636.412H598.801V606.457H589.186V636.412H561.449V644.918H589.186V674.873Z" fill="#23292E"/>
<path d="M735.264 719.251H744.139V698.541H763V690.405H744.139V669.696H735.264V690.405H716.773V698.541H735.264V719.251Z" fill="#23292E"/>
<path fill-rule="evenodd" clip-rule="evenodd" d="M703.829 781.75H714.184V752.165H741.92V742.92H714.184V712.964H703.829V742.92H676.463V752.165H703.829V781.75Z" fill="#23292E"/>
<path d="M673.504 611.634V605.348H655.013V585.008H648.357V605.348H629.866V611.634H648.357V631.974H655.013V611.634H673.504ZM558.491 717.772H565.148V697.432H583.638V691.145H565.148V671.175H558.491V691.145H540V697.802L558.491 697.432V717.772Z" fill="#23292E"/>
<circle cx="639.101" cy="639.947" r="4.46" fill="#23292E"/>
</g>
<defs>
<clipPath id="clip0_1_28">
<rect width="223" height="220.056" fill="white" transform="translate(540 585)"/>
</clipPath>
</defs>
</svg>
